<svg width="600" height="340" fill="none" xmlns="http://www.w3.org/2000/svg"><g clip-path="url(#a)"><path d="M312-.5h-.35l-.12.33-126 340-.25.67H668.35l.12-.33 126-340 .25-.67H312Z" stroke="url(#b)"/><path opacity=".8" d="M324.55 265.34c.01 1.58.69 2.43 1.9 2.43 1.26 0 1.97-.9 1.97-2.52v-6.9h1.59v6.9c0 2.43-1.4 3.99-3.57 3.99-2.06 0-3.5-1.56-3.51-3.78l1.62-.12Zm7.36-1.92c.31-1.59 1.57-2.55 3.37-2.55 2.16 0 3.33 1.2 3.33 3.36v3c0 .38.17.51.48.51h.33V269h-.52c-.72.01-1.67-.13-1.73-1.21-.34.75-1.23 1.39-2.53 1.39-1.6 0-2.87-.84-2.87-2.26 0-1.61 1.19-2.06 3-2.4l2.28-.45c-.01-1.28-.6-1.9-1.77-1.9-.93 0-1.54.47-1.77 1.35l-1.6-.1Zm1.48 3.46c0 .59.5 1.07 1.55 1.07 1.21 0 2.14-.85 2.14-2.6v-.07l-1.7.3c-1.12.2-1.99.29-1.99 1.3Zm7.62-5.83h1.41l.05 1.3a2.32 2.32 0 0 1 2.26-1.48c1.14 0 1.97.6 2.31 1.65.36-1.08 1.19-1.65 2.39-1.65 1.62 0 2.58 1.08 2.58 3.01V269h-1.56v-4.65c0-1.4-.51-2.16-1.41-2.16-1.14 0-1.79.78-1.79 2.16V269h-1.48v-4.65c0-1.37-.51-2.16-1.41-2.16-1.13 0-1.79.8-1.79 2.16V269h-1.56v-7.95Zm12.57 3.97c0-2.53 1.49-4.15 3.77-4.15 1.86 0 3.48 1.23 3.57 4.06l.01.55h-5.71c.12 1.48.87 2.35 2.13 2.35.8 0 1.5-.45 1.83-1.21l1.63.12a3.54 3.54 0 0 1-3.46 2.44c-2.28 0-3.77-1.62-3.77-4.16Zm1.67-.75h4.03c-.2-1.52-1.03-2.05-1.93-2.05-1.17 0-1.9.76-2.1 2.05Zm12.1-.73c-.16-.84-.97-1.35-1.8-1.35-.8 0-1.47.42-1.45 1.13 0 .72.94 1.01 1.75 1.17 1.95.36 3.24.88 3.24 2.44s-1.59 2.25-3.22 2.25c-2.01 0-3.47-1.04-3.59-2.69l1.6-.1c.16.9.86 1.46 1.97 1.46.7 0 1.62-.25 1.62-.98-.01-.87-1.02-.98-1.89-1.17-1.65-.36-3.1-.8-3.1-2.32 0-1.55 1.24-2.51 3.2-2.51 1.7 0 3.02 1 3.28 2.58l-1.6.09Zm11.33-5.19c2.43 0 3.87 1.23 3.87 3.3 0 2.09-1.44 3.35-3.87 3.35h-2.35v4h-1.6v-10.65h3.95Zm-2.35 5.17h2.32c1.49 0 2.25-.63 2.25-1.87 0-1.21-.76-1.83-2.25-1.83h-2.32v3.7Zm7.27 1.5c0-2.53 1.48-4.15 3.76-4.15 1.86 0 3.48 1.23 3.57 4.06l.02.55h-5.72c.12 1.48.87 2.35 2.13 2.35.8 0 1.5-.45 1.83-1.21l1.64.12a3.54 3.54 0 0 1-3.47 2.44c-2.28 0-3.76-1.62-3.76-4.16Zm1.66-.75h4.04c-.21-1.52-1.04-2.05-1.94-2.05-1.17 0-1.9.76-2.1 2.05Zm7.48-3.22h1.42l.05 1.5c.25-1.02.85-1.5 1.89-1.5h.76v1.29h-.78c-1.23 0-1.78.68-1.78 2.01V269h-1.56v-7.95Zm5.58-2.7h1.56v6.66l3.54-3.96h2l-3.08 3.34 3.24 4.61h-1.83l-2.46-3.62-1.41 1.54V269h-1.56v-10.65Zm9.17 2.7h1.56V269h-1.56v-7.95Zm-.02-1.19v-1.51h1.62v1.51h-1.62Zm3.78 1.19h1.41l.05 1.35c.42-1.06 1.33-1.53 2.43-1.53 1.78 0 2.68 1.29 2.68 3.01V269h-1.56v-4.65c0-1.4-.42-2.16-1.53-2.16-1.18 0-1.92.76-1.92 2.16V269h-1.56v-7.95Zm13.23 2.49c-.16-.84-.97-1.35-1.8-1.35-.8 0-1.47.42-1.45 1.13 0 .72.94 1.01 1.75 1.17 1.95.36 3.24.88 3.24 2.44s-1.59 2.25-3.22 2.25c-2.01 0-3.47-1.04-3.59-2.69l1.6-.1c.16.9.86 1.46 1.97 1.46.7 0 1.62-.25 1.62-.98-.01-.87-1.02-.98-1.89-1.17-1.65-.36-3.1-.8-3.1-2.32 0-1.55 1.24-2.51 3.2-2.51 1.7 0 3.02 1 3.28 2.58l-1.6.09Z" fill="#fff"/><path opacity=".5" d="M331.84 289.64c-.39 2.09-1.86 3.6-4.29 3.6-3.06 0-4.81-2.44-4.81-5.55 0-3.12 1.74-5.58 4.81-5.58a4.16 4.16 0 0 1 4.2 3.36l-1.32.09a2.81 2.81 0 0 0-2.88-2.22c-2.43 0-3.5 2.01-3.5 4.35 0 2.32 1.08 4.32 3.5 4.32 1.62 0 2.64-1.02 2.94-2.46l1.35.09Zm1.9-7.29h6.67v1.23H335v3.48h5.23v1.2H335v3.51h5.53V293h-6.8v-10.65Zm13.19 10.89c-2.95 0-4.81-2.14-4.81-5.55 0-3.44 1.86-5.58 4.81-5.58 2.95 0 4.81 2.14 4.81 5.58 0 3.4-1.86 5.55-4.81 5.55Zm-3.5-5.55c0 2.76 1.26 4.32 3.5 4.32s3.5-1.56 3.5-4.32c0-2.77-1.26-4.35-3.5-4.35s-3.5 1.58-3.5 4.35Zm17.21-5.58c1.44.12 2.63 1.47 2.15 3-.26.8-.93 1.6-1.98 2.26l2.47 3.15c.36-.47.51-1.42.47-2.25l1.29.13a5.29 5.29 0 0 1-.98 3.07l1.28 1.53h-1.49l-.57-.69c-.58.56-1.53.87-2.58.87-2.2 0-3.73-1.05-3.73-2.99 0-1.25.55-2.02 1.89-2.95l.2-.13a4.4 4.4 0 0 1-1.01-2.56 2.38 2.38 0 0 1 2.6-2.44Zm-2.4 8.08c0 1.13.98 1.83 2.46 1.83.75 0 1.41-.23 1.74-.63l-2.6-3.32c-.73.46-1.6 1.12-1.6 2.13Zm1.05-5.59c0 .5.24 1.1.78 1.83 1-.47 1.6-1.16 1.6-1.81 0-.73-.43-1.24-1.09-1.28-.73-.04-1.3.54-1.29 1.26Zm20.07 5.04c-.39 2.09-1.86 3.6-4.29 3.6-3.06 0-4.81-2.44-4.81-5.55 0-3.12 1.74-5.58 4.81-5.58a4.16 4.16 0 0 1 4.2 3.36l-1.32.09a2.81 2.81 0 0 0-2.88-2.22c-2.43 0-3.5 2.01-3.5 4.35 0 2.32 1.08 4.32 3.5 4.32 1.62 0 2.64-1.02 2.94-2.46l1.35.09Zm5 3.54c-2.2 0-3.63-1.63-3.63-4.16 0-2.51 1.42-4.15 3.63-4.15 2.2 0 3.63 1.63 3.63 4.15 0 2.53-1.43 4.16-3.63 4.16Zm-2.34-4.16c0 1.87.85 2.99 2.34 2.99 1.47 0 2.34-1.13 2.34-2.99 0-1.85-.87-2.98-2.34-2.98-1.49 0-2.34 1.13-2.34 2.98Zm7.38-.95h4.95v1.13h-4.95v-1.13Zm7.7-3.56c0-1.3.68-2.16 2.14-2.16h1.2v1.08h-1.22c-.52 0-.88.42-.88 1.08v.54h2v1.1h-2V293h-1.23v-6.86h-1.08v-1.09h1.08v-.54Zm7.85 8.67c-2.2 0-3.63-1.63-3.63-4.16 0-2.51 1.43-4.15 3.63-4.15s3.63 1.63 3.63 4.15c0 2.53-1.42 4.16-3.63 4.16Zm-2.34-4.16c0 1.87.86 2.99 2.34 2.99 1.47 0 2.34-1.13 2.34-2.99 0-1.85-.87-2.98-2.34-2.98-1.48 0-2.34 1.13-2.34 2.98Zm14.05 3.98h-1.17v-1.35c-.4 1.04-1.35 1.53-2.4 1.53-1.77 0-2.64-1.33-2.64-3.01v-5.12h1.23v4.74c0 1.48.5 2.3 1.66 2.3 1.26 0 2.09-.81 2.09-2.3v-4.74h1.23V293Zm2.55-7.95h1.12l.05 1.37c.4-1.07 1.35-1.55 2.44-1.55 1.82 0 2.69 1.33 2.69 3.01V293h-1.23v-4.75c0-1.48-.5-2.29-1.71-2.29-1.3 0-2.13.81-2.13 2.29V293h-1.23v-7.95Zm15.02-2.7V293h-1.11l-.05-1.17c-.45.84-1.3 1.35-2.53 1.35-2.3 0-3.36-1.95-3.36-4.16 0-2.2 1.06-4.15 3.36-4.15 1.17 0 2 .45 2.46 1.26v-3.78h1.23Zm-5.76 6.67c0 1.55.66 2.99 2.32 2.99 1.64 0 2.31-1.47 2.31-2.99 0-1.57-.67-3.02-2.3-3.02-1.67 0-2.33 1.44-2.33 3.02Zm7.73 0c0-2.51 1.43-4.15 3.63-4.15 1.77 0 3.32 1.19 3.45 3.99l.02.56h-5.8c.13 1.63.95 2.59 2.33 2.59.87 0 1.65-.51 2.01-1.35l1.32.09a3.42 3.42 0 0 1-3.33 2.43c-2.2 0-3.63-1.63-3.63-4.16Zm1.34-.7h4.4c-.22-1.68-1.12-2.28-2.1-2.28-1.28 0-2.1.84-2.3 2.28Zm7.67-3.27h1.08l.04 1.47c.27-1 .87-1.47 1.9-1.47h.77v1.08h-.76c-1.22 0-1.8.75-1.8 2.13V293h-1.23v-7.95Z" fill="#fff"/><path d="M351.86 145c0 7.82-5.1 12.77-13.2 12.77-8.12 0-13.2-4.95-13.2-12.77v-22.13h5.08V145c0 5.18 2.93 8.06 8.12 8.06 5.18 0 8.1-2.88 8.1-8.06v-22.13h5.1V145Zm7.3-13.44h4.52l.14 4.32c1.35-3.4 4.28-4.9 7.78-4.9 5.71 0 8.6 4.13 8.6 9.65V157h-5v-14.88c0-4.46-1.34-6.91-4.9-6.91-3.79 0-6.14 2.45-6.14 6.91V157h-5v-25.44Zm27.57-8.64h5v21.31l11.32-12.67h6.43l-9.88 10.7L409.96 157h-5.85l-7.88-11.57-4.5 4.9V157h-5v-34.08Zm25 21.36c0-8.11 4.75-13.3 12.04-13.3 5.95 0 11.14 3.94 11.43 13.01l.04 1.73h-18.29c.39 4.75 2.79 7.54 6.82 7.54 2.55 0 4.8-1.44 5.86-3.9l5.23.4c-1.49 4.8-5.95 7.82-11.09 7.82-7.3 0-12.05-5.19-12.05-13.3Zm5.32-2.4h12.91c-.67-4.9-3.3-6.58-6.19-6.58-3.74 0-6.1 2.45-6.72 6.58Zm20.15-10.32h5.09l7.24 20.16 7.01-20.16h5.04l-10.18 28.42c-1.05 2.92-2.97 4.22-6.1 4.22h-3.45v-4.08h2.79c1.3 0 2.06-.48 2.5-1.68l.86-2.16h-1.59l-9.21-24.72Zm40.98 0h5V157h-5v-25.44Zm-.04-3.8v-4.84h5.18v4.85h-5.18Zm12.1 3.8h4.5l.15 4.32c1.34-3.4 4.27-4.9 7.77-4.9 5.71 0 8.6 4.13 8.6 9.65V157h-5v-14.88c0-4.46-1.34-6.91-4.9-6.91-3.79 0-6.14 2.45-6.14 6.91V157h-4.99v-25.44ZM346.9 178.92v4.7H331.8l-1.3 9.75c1.59-1.97 4.61-3.07 7.64-3.07 6.53 0 11.09 4.84 11.09 11.56 0 7.01-5.1 11.9-12.24 11.9-7.01 0-12.24-3.98-12.72-9.69l5.23-.33c.53 3.4 3.74 5.32 7.44 5.32 4.17 0 7.05-2.92 7.05-7.15 0-4.41-2.92-7.2-7.44-7.2-2.92 0-5.47 1.35-6.43 3.6h-5.33l2.64-19.39h19.5Zm20.47 0h6.96l10.18 28.18 10.17-28.18h6.96V213h-5.09v-24.62L387.44 213h-5.85l-9.12-24.62V213h-5.1v-34.08Zm42.27 8.64h5V213h-5v-25.44Zm-.04-3.8v-4.84h5.18v4.85h-5.19Zm12.09 3.8h4.51l.15 4.32c1.34-3.4 4.27-4.9 7.77-4.9 5.71 0 8.6 4.13 8.6 9.65V213h-5v-14.88c0-4.46-1.34-6.91-4.9-6.91-3.79 0-6.14 2.45-6.14 6.91V213h-5v-25.44ZM471.18 213h-4.7l-.06-4.18c-1.34 3.32-4.22 4.76-7.53 4.76-5.62 0-8.5-4.13-8.5-9.65v-16.37h5v14.83c0 4.51 1.34 6.96 4.8 6.96 3.6 0 6-2.45 6-6.96v-14.83h4.99V213Zm9.46-31.2h4.99v5.76h6.77v4.13h-6.77v14.06c0 2.07 1 3.12 2.97 3.12h3.75V213h-4.18c-4.9 0-7.53-2.54-7.53-7.25V191.7h-3.84v-4.13h3.84v-5.76Zm14.75 18.48c0-8.11 4.76-13.3 12.05-13.3 5.95 0 11.14 3.94 11.43 13.01l.04 1.73h-18.28c.38 4.75 2.78 7.54 6.81 7.54 2.55 0 4.8-1.44 5.86-3.9l5.23.4c-1.49 4.8-5.95 7.82-11.09 7.82-7.3 0-12.05-5.19-12.05-13.3Zm5.33-2.4h12.91c-.67-4.9-3.3-6.58-6.19-6.58-3.74 0-6.1 2.45-6.72 6.58Zm38.74-2.35c-.53-2.69-3.12-4.32-5.76-4.32-2.59 0-4.7 1.34-4.65 3.6 0 2.3 3.02 3.26 5.61 3.74 6.24 1.15 10.37 2.83 10.37 7.83 0 4.99-5.09 7.2-10.32 7.2-6.43 0-11.09-3.32-11.47-8.6l5.13-.33c.48 2.88 2.74 4.65 6.3 4.65 2.25 0 5.18-.76 5.18-3.12-.05-2.78-3.27-3.12-6.05-3.74-5.28-1.15-9.94-2.54-9.94-7.44 0-4.94 3.99-8.02 10.27-8.02 5.43 0 9.65 3.22 10.47 8.26l-5.14.29Z" fill="url(#c)"/><path d="M555.06 51a12.5 12.5 0 1 0 0-22m-8.56 5h7m-7 12h7m-7-6h3m20.5-9 1.5-1.5M561 27v-3.5m0 0h-4.5m4.5 0h4.5m0 12-5 5" stroke="url(#d)" stroke-linecap="round" stroke-linejoin="round"/><path d="M41.59 48.27c-5.33 0-8.37-2.83-8.37-7.67V30.16h2.85V40.4c0 3.6 1.6 5.09 5.52 5.09 3.91 0 5.5-1.5 5.5-5.09V30.16h2.89V40.6c0 4.84-3.04 7.67-8.4 7.67ZM55.4 48h-2.88V34.76h2.64v4.1h.19c.4-2.23 2.15-4.36 5.5-4.36 3.68 0 5.5 2.48 5.5 5.54V48h-2.88v-7.19c0-2.48-1.12-3.73-3.86-3.73-2.9 0-4.21 1.5-4.21 4.37V48Zm16.38 0h-2.87V30.16h2.87V40h3.79l3.96-5.25h3.36l-4.98 6.37L82.86 48h-3.38l-3.91-5.4h-3.79V48Zm19.18.27c-4.34 0-7.19-2.45-7.19-6.87 0-4.13 2.82-6.9 7.14-6.9 4.1 0 6.9 2.26 6.9 6.28 0 .48-.03.86-.11 1.25H86.46c.1 2.56 1.36 3.92 4.42 3.92 2.77 0 3.92-.9 3.92-2.48v-.21h2.87v.24c0 2.82-2.77 4.77-6.7 4.77Zm-.1-11.5c-2.93 0-4.21 1.3-4.37 3.67h8.6v-.06c0-2.45-1.41-3.62-4.24-3.62Zm11.23 15.76h-1.9v-2.61h2.6c1.16 0 1.64-.32 2.04-1.23l.32-.69-6.52-13.24h3.22l3.38 7.04 1.3 3.16h.22l1.25-3.2 3.12-7h3.17l-6.9 14.68c-1.1 2.37-2.58 3.09-5.3 3.09Z" fill="url(#e)"/></g><rect x=".38" y=".38" width="599.25" height="339.25" rx="27.63" stroke="url(#f)" stroke-width=".75"/><defs><radialGradient id="b" cx="0" cy="0" r="1" gradientUnits="userSpaceOnUse" gradientTransform="matrix(-127.00067 318.74987 -682.858 -272.07359 416 0)"><stop stop-color="#fff" stop-opacity=".05"/><stop offset=".5" stop-color="#fff" stop-opacity=".15"/><stop offset="1" stop-color="#fff" stop-opacity="0"/></radialGradient><radialGradient id="d" cx="0" cy="0" r="1" gradientUnits="userSpaceOnUse" gradientTransform="matrix(26.00003 29 -39.78784 35.6719 547 24)"><stop stop-color="#fff"/><stop offset=".5" stop-color="#fff"/><stop offset="1" stop-color="#fff" stop-opacity=".4"/></radialGradient><radialGradient id="e" cx="0" cy="0" r="1" gradientUnits="userSpaceOnUse" gradientTransform="matrix(82.55372 35.50697 -35.4545 82.43173 32 22)"><stop offset=".27" stop-color="#fff"/><stop offset=".9" stop-color="#fff" stop-opacity=".2"/></radialGradient><linearGradient id="c" x1="322" y1="112" x2="498.26" y2="176.95" gradientUnits="userSpaceOnUse"><stop stop-color="#fff"/><stop offset=".5" stop-color="#fff"/><stop offset="1" stop-color="#fff" stop-opacity=".3"/></linearGradient><linearGradient id="f" x1="300" y1="0" x2="300" y2="340" gradientUnits="userSpaceOnUse"><stop stop-color="#fff" stop-opacity=".12"/><stop offset="1" stop-color="#fff" stop-opacity=".06"/></linearGradient><clipPath id="a"><rect width="600" height="340" rx="28" fill="#fff"/></clipPath></defs></svg>