<svg width="229" height="37" viewBox="0 0 229 37" fill="none" xmlns="http://www.w3.org/2000/svg">
<g clip-path="url(#clip0_1_45)">
<path d="M71.7 29.1151C75.36 29.1151 78.06 27.7051 79.65 25.7851L76.59 23.1751C75.36 24.5251 73.83 25.2151 71.79 25.2151C67.65 25.2151 65.1 22.0951 65.1 18.2551C65.1 14.4151 67.65 11.2351 71.7 11.2351C73.59 11.2351 75.15 11.8951 76.41 13.2151L79.38 10.6351C77.49 8.38513 75.12 7.33513 71.7 7.33513C65.22 7.33513 60.75 12.2251 60.75 18.2551C60.75 24.2551 65.46 29.1151 71.7 29.1151ZM87.2944 29.1151C90.0844 29.1151 91.4944 27.9451 92.3344 26.1751V28.7251H96.2644V13.1251H92.2444V15.5851C91.4044 13.9051 89.9944 12.7951 87.2944 12.7951C83.0044 12.7951 79.5844 16.4851 79.5844 20.9851C79.5844 25.4851 83.0044 29.1151 87.2944 29.1151ZM83.6344 20.9551C83.6344 18.5251 85.3744 16.4551 87.9544 16.4551C90.6244 16.4551 92.3344 18.5551 92.3344 20.9851C92.3344 23.4151 90.6244 25.4551 87.9544 25.4551C85.3744 25.4551 83.6344 23.3251 83.6344 20.9551ZM98.6707 28.7251H102.721V6.82513H98.6707V28.7251ZM107.276 29.1151C108.836 29.1151 109.946 27.9151 109.946 26.4751C109.946 25.0651 108.836 23.8651 107.276 23.8651C105.716 23.8651 104.576 25.0651 104.576 26.4751C104.576 27.9151 105.716 29.1151 107.276 29.1151ZM118.65 29.1151C121.71 29.1151 123.87 28.0051 125.34 26.1151L122.4 23.5651C121.59 24.6451 120.57 25.4251 119.01 25.4251C116.43 25.4251 114.66 23.3551 114.66 20.9251C114.66 18.4951 116.34 16.4251 118.92 16.4251C120.3 16.4251 121.5 17.1151 122.22 18.1951L125.34 15.6451C124.02 13.8151 121.71 12.7051 118.86 12.7351C114.09 12.7651 110.61 16.3951 110.61 20.9251C110.61 25.4551 114.18 29.1151 118.65 29.1151ZM133.656 29.1151C138.486 29.1151 141.966 25.4551 141.966 20.9551C141.966 16.4551 138.486 12.7651 133.656 12.7651C128.826 12.7651 125.346 16.4551 125.346 20.9551C125.346 25.4551 128.826 29.1151 133.656 29.1151ZM129.396 20.9551C129.396 18.5251 131.076 16.4551 133.656 16.4551C136.236 16.4551 137.916 18.5251 137.916 20.9551C137.916 23.3851 136.236 25.4251 133.656 25.4251C131.076 25.4251 129.396 23.3851 129.396 20.9551ZM143.759 28.7251H147.809V20.1751C147.809 17.4751 149.339 16.3051 151.049 16.3051C153.059 16.3051 154.409 17.4751 154.409 20.1751V28.7251H158.459V20.1751C158.459 17.1751 159.749 16.3051 161.639 16.3051C163.469 16.3051 164.759 17.4751 164.759 20.1751V28.7251H168.809V19.1851C168.809 15.2551 166.229 12.7651 162.869 12.7651C160.139 12.7651 158.639 13.8151 157.589 15.7051C156.569 13.8151 154.709 12.7651 152.519 12.7651C150.119 12.7651 148.559 13.6651 147.749 15.4051V13.1251H143.759V28.7251Z" fill="white"/>
</g>
<defs>
<clipPath id="clip0_1_45">
<rect width="109" height="23" fill="white" transform="translate(60 6.72516)"/>
</clipPath>
</defs>
</svg>
