<svg width="229" height="37" viewBox="0 0 229 37" fill="none" xmlns="http://www.w3.org/2000/svg">
<g clip-path="url(#clip0_1_46)">
<path fill-rule="evenodd" clip-rule="evenodd" d="M39.2915 7L34.0317 19.6042L28.767 7H25.3896L31.16 20.7786C31.6387 21.9282 32.7612 22.6708 34.012 22.6708C35.2628 22.6708 36.3828 21.9282 36.8639 20.7835L42.6689 7H39.2915ZM41.539 26.2036L51.1606 16.476L49.8481 13.3798L39.3384 24.0252C38.4601 24.9158 38.2085 26.2283 38.6945 27.378C39.178 28.5177 40.2956 29.2554 41.5415 29.2554L41.5464 29.2603L56.5684 29.2233L55.2559 26.1272L41.5415 26.2036H41.539ZM16.9078 16.4686L18.2203 13.3724L28.73 24.0178C29.6083 24.906 29.8624 26.2234 29.3739 27.3706C28.8903 28.5128 27.7678 29.248 26.5269 29.248L11.5049 29.2135L11.5 29.2184L12.8125 26.1222L26.5269 26.1987L16.9078 16.4686Z" fill="white"/>
<path d="M68.5682 28.0242L68.5706 28.0267H71.1537V19.1305H79.4973V16.8238H71.1537V11.036H80.3311V8.72931H68.5682V28.0242Z" fill="white"/>
<path d="M85.433 14.0879H83.0104V28.0243H85.433V14.0879Z" fill="white"/>
<path d="M91.576 15.9357H91.5785C91.5242 16.0689 91.4724 16.1503 91.3096 16.1503C91.1739 16.1503 91.1221 16.0985 91.1221 15.9653V14.0878H88.6994V28.0243H91.1172V20.1149C91.1172 17.4381 92.3581 16.3921 94.6993 16.3921H96.6384V14.0336H95.0768C93.1673 14.0336 92.1977 14.5961 91.576 15.9357Z" fill="white"/>
<path d="M104.696 26.3417C102.098 26.3417 100.159 24.8664 99.9961 21.7332H111.317V20.3912C111.317 16.5055 108.949 13.6906 104.639 13.6906C100.329 13.6906 97.5833 16.5055 97.5833 21.0597C97.5833 25.6139 100.248 28.4289 104.691 28.4289C109.134 28.4289 110.96 25.725 111.369 23.6082H108.843C108.451 25.1921 107.294 26.3417 104.696 26.3417ZM104.639 15.7753C107.2 15.7753 108.784 17.1445 108.895 19.7177H100.063C100.465 17.0878 102.323 15.7753 104.639 15.7753Z" fill="white"/>
<path d="M128.51 25.4241C128.451 25.6658 128.377 25.7472 128.185 25.7472C127.992 25.7472 127.911 25.6658 127.859 25.4241L125.165 14.0879H120.991L118.297 25.4241C118.238 25.6658 118.164 25.7472 117.971 25.7472C117.779 25.7472 117.697 25.6658 117.646 25.4241L114.951 14.0879H112.583V14.6257H112.598L115.884 28.0243H120.043L122.819 16.3379C122.871 16.1479 122.923 16.0961 123.085 16.0961C123.219 16.0961 123.3 16.1528 123.352 16.3379L126.127 28.0243H130.287L133.573 14.6257V14.0879H131.204L128.51 25.4241Z" fill="white"/>
<path d="M142.02 13.6882C137.952 13.6882 134.723 16.2317 134.723 21.0573C134.723 25.8829 137.949 28.4264 142.02 28.4264C146.091 28.4264 149.32 25.8829 149.32 21.0573C149.32 16.2317 146.088 13.6882 142.02 13.6882ZM142.025 26.2825C139.198 26.2825 137.177 24.41 137.177 21.0573C137.177 17.7046 139.198 15.8321 142.025 15.8321C144.852 15.8321 146.873 17.7095 146.873 21.0573C146.873 24.4051 144.852 26.2825 142.025 26.2825Z" fill="white"/>
<path d="M154.758 15.9357C154.706 16.0689 154.654 16.1503 154.491 16.1503C154.355 16.1503 154.304 16.0985 154.304 15.9653V14.0878H151.881V28.0218H154.299V20.1149C154.299 17.4381 155.54 16.3921 157.881 16.3921H159.82V14.0336H158.258C156.349 14.0336 155.379 14.5961 154.758 15.9357Z" fill="white"/>
<path d="M164.11 20.5737V8.72931H161.688V28.0366H164.11V23.586L166.738 21.3459L171.963 28.0316H174.613V27.4938L168.526 19.8138L174.613 14.6256V14.0878H171.499L164.11 20.5737Z" fill="white"/>
<path d="M183.008 20.0483L181.017 19.6733C179.108 19.3106 178.271 18.911 178.271 17.7564C178.271 16.6018 179.216 15.7457 181.476 15.7457C183.736 15.7457 185.028 16.6067 185.216 18.5088H187.683C187.409 15.1117 184.772 13.6931 181.466 13.6931C178.16 13.6931 175.839 15.1141 175.839 17.7909C175.839 20.4677 177.738 21.3953 180.472 21.9035L182.463 22.2785C184.402 22.6412 185.371 23.0581 185.371 24.262C185.371 25.466 184.399 26.364 182.061 26.364C179.722 26.364 178.17 25.3993 177.983 23.549H175.518C175.747 26.8722 178.454 28.4264 182.063 28.4264C185.672 28.4264 187.799 26.887 187.799 24.1239C187.799 21.3608 185.564 20.5294 183.008 20.0483Z" fill="white"/>
<path d="M217.411 8.72931H214.695V28.0366H217.411V8.72931Z" fill="white"/>
<path d="M201.521 8.91686L193.991 27.6838V28.0366H196.68L198.587 22.9964H207.651L209.559 28.0366H212.329V27.6887L204.745 8.72931H201.521V8.91686ZM199.483 20.6625L202.72 12.1832H202.717C202.772 12.0377 202.912 11.9414 203.068 11.9414H203.201C203.356 11.9414 203.497 12.0377 203.551 12.1832L206.763 20.6625H199.483Z" fill="white"/>
<path d="M85.433 8.72931H83.0104V11.5714H85.433V8.72931Z" fill="white"/>
</g>
<defs>
<clipPath id="clip0_1_46">
<rect width="206" height="22.4503" fill="white" transform="translate(11.5 7)"/>
</clipPath>
</defs>
</svg>