<svg width="229" height="37" viewBox="0 0 229 37" fill="none" xmlns="http://www.w3.org/2000/svg">
<g clip-path="url(#clip0_1_61)">
<path d="M90.285 26.4752H85.995V7.22518H91.2475L96.5 21.3327L101.725 7.22518H106.978V26.4752H102.688V14.5952L98.26 26.4752H94.7125L90.285 14.5952V26.4752ZM111.867 10.4427C111.171 10.4427 110.575 10.2044 110.08 9.72768C109.603 9.23268 109.365 8.62768 109.365 7.91268C109.365 7.21601 109.603 6.62935 110.08 6.15268C110.575 5.67601 111.171 5.43768 111.867 5.43768C112.582 5.43768 113.178 5.67601 113.655 6.15268C114.132 6.62935 114.37 7.21601 114.37 7.91268C114.37 8.62768 114.132 9.23268 113.655 9.72768C113.178 10.2044 112.582 10.4427 111.867 10.4427ZM113.985 26.4752H109.75V11.9002H113.985V26.4752ZM116.511 26.4752V11.9002H119.921L120.279 13.9627C120.682 13.1927 121.305 12.5694 122.149 12.0927C123.01 11.616 123.973 11.3777 125.036 11.3777C126.576 11.3777 127.804 11.8727 128.721 12.8627C129.656 13.8527 130.124 15.1819 130.124 16.8502V26.4752H125.889V17.0702C125.889 16.4469 125.687 15.9519 125.284 15.5852C124.88 15.2185 124.33 15.0352 123.634 15.0352C122.809 15.0352 122.121 15.2827 121.571 15.7777C121.021 16.2727 120.746 16.9144 120.746 17.7027V26.4752H116.511ZM138.932 26.4752C137.191 26.4752 135.852 26.0719 134.917 25.2652C134.001 24.4585 133.542 23.2852 133.542 21.7452V15.4752H131.15V11.9002H133.542V6.92268H137.777V11.9002H141.352V15.4752H137.777V21.2777C137.777 21.8094 137.915 22.2127 138.19 22.4877C138.465 22.7627 138.859 22.9002 139.372 22.9002H141.05V26.4752H138.932ZM147.348 26.4752H143.113V5.85018H147.348V26.4752ZM152.017 10.4427C151.321 10.4427 150.725 10.2044 150.23 9.72768C149.753 9.23268 149.515 8.62768 149.515 7.91268C149.515 7.21601 149.753 6.62935 150.23 6.15268C150.725 5.67601 151.321 5.43768 152.017 5.43768C152.732 5.43768 153.328 5.67601 153.805 6.15268C154.282 6.62935 154.52 7.21601 154.52 7.91268C154.52 8.62768 154.282 9.23268 153.805 9.72768C153.328 10.2044 152.732 10.4427 152.017 10.4427ZM154.135 26.4752H149.9V11.9002H154.135V26.4752ZM158.284 26.4752V15.4752H155.891V11.9002H158.284V10.3052C158.284 8.85685 158.724 7.75685 159.604 7.00518C160.484 6.23518 161.758 5.85018 163.426 5.85018H166.534V9.42518H163.866C162.968 9.42518 162.519 9.87435 162.519 10.7727V11.9002H166.259V15.4752H162.519V26.4752H158.284ZM168.069 31.9752V28.4002H171.011C172.001 28.4002 172.625 28.0519 172.881 27.3552L173.211 26.4752H172.579L166.804 11.9002H171.341L174.971 21.7177L178.601 11.9002H183.001L176.841 28.4277C176.401 29.6194 175.714 30.5085 174.779 31.0952C173.844 31.6819 172.588 31.9752 171.011 31.9752H168.069Z" fill="white"/>
<mask id="mask0_1_61" style="mask-type:luminance" maskUnits="userSpaceOnUse" x="43" y="1" width="30" height="30">
<path d="M72.5625 1.72516H43.6875V30.6002H72.5625V1.72516Z" fill="white"/>
</mask>
<g mask="url(#mask0_1_61)">
<path d="M51.2959 12.261C51.3161 9.51121 52.4066 6.87747 54.3361 4.91827H54.3325L46.8832 12.3676H46.8867C46.859 12.3895 46.8329 12.4132 46.8085 12.4388C44.9968 14.2481 43.8984 16.6501 43.7149 19.2039C43.5313 21.7577 44.275 24.2921 45.8093 26.3419L53.3334 18.8178L53.4116 18.7431C52.0092 16.8757 51.2652 14.5962 51.2959 12.261Z" fill="white"/>
<path d="M69.3838 19.9697C67.958 21.367 66.1683 22.3356 64.2187 22.765C62.2693 23.1944 60.2382 23.0673 58.3574 22.3984C57.3545 22.0423 56.412 21.5352 55.5625 20.8943L55.4842 20.9725L47.9602 28.4929C50.0108 30.0235 52.5438 30.7647 55.096 30.5813C57.6483 30.3979 60.0492 29.3019 61.8598 27.4937L61.9344 27.4191L69.3838 19.9697Z" fill="white"/>
<path d="M72.5768 12.3676V1.72516H61.9343C60.5366 1.72376 59.1524 1.99853 57.8611 2.53369C56.5699 3.06885 55.3972 3.85385 54.4102 4.84359L54.3356 4.91827C53.0347 6.23891 52.1039 7.87843 51.6367 9.67234C52.4825 9.45332 53.3517 9.33752 54.2253 9.32744C56.5606 9.29995 58.8394 10.045 60.7075 11.4467C62.3864 12.6987 63.657 14.4197 64.3594 16.3928C65.0751 18.4094 65.1691 20.5944 64.6296 22.6652C66.4238 22.1988 68.0635 21.2679 69.3836 19.9663L69.4583 19.8952C70.4484 18.9078 71.2337 17.7346 71.7689 16.4427C72.304 15.1509 72.5786 13.766 72.5768 12.3676Z" fill="white"/>
</g>
</g>
<defs>
<clipPath id="clip0_1_61">
<rect width="141.625" height="33" fill="white" transform="translate(43.6875 1.72516)"/>
</clipPath>
</defs>
</svg>
