<svg width="1400" height="541" fill="none" xmlns="http://www.w3.org/2000/svg"><g opacity=".7"><rect width="21" height="24" rx="3" transform="matrix(-1 0 0 1 524 82)" fill="#fff" fill-opacity=".06"/><rect width="15" height="6" rx="1.5" transform="matrix(-1 0 0 1 521 96)" fill="#fff" fill-opacity=".06"/><path fill="#fff" fill-opacity=".16" d="M832 276h-2v8h2zM828 276h-2v8h2zM837 279h-2v2h2z"/><path fill="#fff" fill-opacity=".08" d="M837 279h-2v1h2zM832 276h-2v1h2zM828 276h-2v1h2z"/><path fill="#fff" fill-opacity=".16" d="M813 276h-2v8h2zM809 276h-2v8h2zM818 279h-2v2h2z"/><path fill="#fff" fill-opacity=".08" d="M818 279h-2v1h2zM813 276h-2v1h2zM809 276h-2v1h2z"/><path fill="#fff" fill-opacity=".16" d="M794 276h-2v8h2zM790 276h-2v8h2zM799 279h-2v2h2z"/><path fill="#fff" fill-opacity=".08" d="M799 279h-2v1h2zM794 276h-2v1h2zM790 276h-2v1h2z"/><path fill="#fff" fill-opacity=".16" d="M794 260h-2v8h2zM790 260h-2v8h2zM799 263h-2v2h2z"/><path fill="#fff" fill-opacity=".08" d="M799 263h-2v1h2zM794 260h-2v1h2zM790 260h-2v1h2z"/><path fill="#fff" fill-opacity=".16" d="M847 76h-2v8h2zM843 76h-2v8h2zM852 79h-2v2h2z"/><path fill="#fff" fill-opacity=".08" d="M852 79h-2v1h2zM847 76h-2v1h2zM843 76h-2v1h2z"/><path fill="#fff" fill-opacity=".16" d="M362 273h-2v8h2zM358 273h-2v8h2zM367 276h-2v2h2z"/><path fill="#fff" fill-opacity=".08" d="M367 276h-2v1h2zM362 273h-2v1h2zM358 273h-2v1h2z"/><path fill="#fff" fill-opacity=".16" d="M828 76h-2v8h2zM824 76h-2v8h2zM833 79h-2v2h2z"/><path fill="#fff" fill-opacity=".08" d="M833 79h-2v1h2zM828 76h-2v1h2zM824 76h-2v1h2z"/><path fill="#fff" fill-opacity=".16" d="M343 273h-2v8h2zM339 273h-2v8h2zM348 276h-2v2h2z"/><path fill="#fff" fill-opacity=".08" d="M348 276h-2v1h2zM343 273h-2v1h2zM339 273h-2v1h2z"/><path fill="#fff" fill-opacity=".16" d="M809 76h-2v8h2zM805 76h-2v8h2zM814 79h-2v2h2z"/><path fill="#fff" fill-opacity=".08" d="M814 79h-2v1h2zM809 76h-2v1h2zM805 76h-2v1h2z"/><path fill="#fff" fill-opacity=".16" d="M324 273h-2v8h2zM320 273h-2v8h2zM329 276h-2v2h2z"/><path fill="#fff" fill-opacity=".08" d="M329 276h-2v1h2zM324 273h-2v1h2zM320 273h-2v1h2z"/><path fill="#fff" fill-opacity=".16" d="M572 360h-8v2h8z"/><path fill="#fff" fill-opacity=".08" d="M572 360h-8v1h8z"/><path fill="#fff" fill-opacity=".16" d="M572 370h-8v2h8z"/><path fill="#fff" fill-opacity=".08" d="M572 370h-8v1h8z"/><path fill="#fff" fill-opacity=".16" d="M571 364h-2v4h2z"/><path fill="#fff" fill-opacity=".08" d="M571 364h-2v1h2z"/><path fill="#fff" fill-opacity=".16" d="M567 364h-2v4h2z"/><path fill="#fff" fill-opacity=".08" d="M567 364h-2v1h2z"/><path fill="#fff" fill-opacity=".16" d="M1055 275h-8v2h8z"/><path fill="#fff" fill-opacity=".08" d="M1055 275h-8v1h8z"/><path fill="#fff" fill-opacity=".16" d="M1055 285h-8v2h8z"/><path fill="#fff" fill-opacity=".08" d="M1055 285h-8v1h8z"/><path fill="#fff" fill-opacity=".16" d="M1054 279h-2v4h2z"/><path fill="#fff" fill-opacity=".08" d="M1054 279h-2v1h2z"/><path fill="#fff" fill-opacity=".16" d="M1050 279h-2v4h2z"/><path fill="#fff" fill-opacity=".08" d="M1050 279h-2v1h2z"/><path fill="#fff" fill-opacity=".16" d="M181 409h-8v2h8z"/><path fill="#fff" fill-opacity=".08" d="M181 409h-8v1h8z"/><path fill="#fff" fill-opacity=".16" d="M181 419h-8v2h8z"/><path fill="#fff" fill-opacity=".08" d="M181 419h-8v1h8z"/><path fill="#fff" fill-opacity=".16" d="M180 413h-2v4h2z"/><path fill="#fff" fill-opacity=".08" d="M180 413h-2v1h2z"/><path fill="#fff" fill-opacity=".16" d="M176 413h-2v4h2z"/><path fill="#fff" fill-opacity=".08" d="M176 413h-2v1h2z"/><path fill="#fff" fill-opacity=".16" d="M588 360h-8v2h8z"/><path fill="#fff" fill-opacity=".08" d="M588 360h-8v1h8z"/><path fill="#fff" fill-opacity=".16" d="M588 370h-8v2h8z"/><path fill="#fff" fill-opacity=".08" d="M588 370h-8v1h8z"/><path fill="#fff" fill-opacity=".16" d="M587 364h-2v4h2z"/><path fill="#fff" fill-opacity=".08" d="M587 364h-2v1h2z"/><path fill="#fff" fill-opacity=".16" d="M583 364h-2v4h2z"/><path fill="#fff" fill-opacity=".08" d="M583 364h-2v1h2z"/><path fill="#fff" fill-opacity=".16" d="M1071 275h-8v2h8z"/><path fill="#fff" fill-opacity=".08" d="M1071 275h-8v1h8z"/><path fill="#fff" fill-opacity=".16" d="M1071 285h-8v2h8z"/><path fill="#fff" fill-opacity=".08" d="M1071 285h-8v1h8z"/><path fill="#fff" fill-opacity=".16" d="M1070 279h-2v4h2z"/><path fill="#fff" fill-opacity=".08" d="M1070 279h-2v1h2z"/><path fill="#fff" fill-opacity=".16" d="M1066 279h-2v4h2z"/><path fill="#fff" fill-opacity=".08" d="M1066 279h-2v1h2z"/><path fill="#fff" fill-opacity=".16" d="M197 409h-8v2h8z"/><path fill="#fff" fill-opacity=".08" d="M197 409h-8v1h8z"/><path fill="#fff" fill-opacity=".16" d="M197 419h-8v2h8z"/><path fill="#fff" fill-opacity=".08" d="M197 419h-8v1h8z"/><path fill="#fff" fill-opacity=".16" d="M196 413h-2v4h2z"/><path fill="#fff" fill-opacity=".08" d="M196 413h-2v1h2z"/><path fill="#fff" fill-opacity=".16" d="M192 413h-2v4h2z"/><path fill="#fff" fill-opacity=".08" d="M192 413h-2v1h2z"/><path fill="#fff" fill-opacity=".16" d="M604 360h-8v2h8z"/><path fill="#fff" fill-opacity=".08" d="M604 360h-8v1h8z"/><path fill="#fff" fill-opacity=".16" d="M604 370h-8v2h8z"/><path fill="#fff" fill-opacity=".08" d="M604 370h-8v1h8z"/><path fill="#fff" fill-opacity=".16" d="M603 364h-2v4h2z"/><path fill="#fff" fill-opacity=".08" d="M603 364h-2v1h2z"/><path fill="#fff" fill-opacity=".16" d="M599 364h-2v4h2z"/><path fill="#fff" fill-opacity=".08" d="M599 364h-2v1h2z"/><path fill="#fff" fill-opacity=".16" d="M1087 275h-8v2h8z"/><path fill="#fff" fill-opacity=".08" d="M1087 275h-8v1h8z"/><path fill="#fff" fill-opacity=".16" d="M1087 285h-8v2h8z"/><path fill="#fff" fill-opacity=".08" d="M1087 285h-8v1h8z"/><path fill="#fff" fill-opacity=".16" d="M1086 279h-2v4h2z"/><path fill="#fff" fill-opacity=".08" d="M1086 279h-2v1h2z"/><path fill="#fff" fill-opacity=".16" d="M1082 279h-2v4h2z"/><path fill="#fff" fill-opacity=".08" d="M1082 279h-2v1h2z"/><path fill="#fff" fill-opacity=".16" d="M213 409h-8v2h8z"/><path fill="#fff" fill-opacity=".08" d="M213 409h-8v1h8z"/><path fill="#fff" fill-opacity=".16" d="M213 419h-8v2h8z"/><path fill="#fff" fill-opacity=".08" d="M213 419h-8v1h8z"/><path fill="#fff" fill-opacity=".16" d="M212 413h-2v4h2z"/><path fill="#fff" fill-opacity=".08" d="M212 413h-2v1h2z"/><path fill="#fff" fill-opacity=".16" d="M208 413h-2v4h2z"/><path fill="#fff" fill-opacity=".08" d="M208 413h-2v1h2z"/><path fill="#fff" fill-opacity=".16" d="M666 111h-8v2h8z"/><path fill="#fff" fill-opacity=".08" d="M666 111h-8v1h8z"/><path fill="#fff" fill-opacity=".16" d="M666 121h-8v2h8z"/><path fill="#fff" fill-opacity=".08" d="M666 121h-8v1h8z"/><path fill="#fff" fill-opacity=".16" d="M665 115h-2v4h2z"/><path fill="#fff" fill-opacity=".08" d="M665 115h-2v1h2z"/><path fill="#fff" fill-opacity=".16" d="M661 115h-2v4h2z"/><path fill="#fff" fill-opacity=".08" d="M661 115h-2v1h2z"/><path fill="#fff" fill-opacity=".16" d="M886 321h-8v2h8z"/><path fill="#fff" fill-opacity=".08" d="M886 321h-8v1h8z"/><path fill="#fff" fill-opacity=".16" d="M886 331h-8v2h8z"/><path fill="#fff" fill-opacity=".08" d="M886 331h-8v1h8z"/><path fill="#fff" fill-opacity=".16" d="M885 325h-2v4h2z"/><path fill="#fff" fill-opacity=".08" d="M885 325h-2v1h2z"/><path fill="#fff" fill-opacity=".16" d="M881 325h-2v4h2z"/><path fill="#fff" fill-opacity=".08" d="M881 325h-2v1h2z"/><path fill="#fff" fill-opacity=".16" d="M485 372h-8v2h8z"/><path fill="#fff" fill-opacity=".08" d="M485 372h-8v1h8z"/><path fill="#fff" fill-opacity=".16" d="M485 382h-8v2h8z"/><path fill="#fff" fill-opacity=".08" d="M485 382h-8v1h8z"/><path fill="#fff" fill-opacity=".16" d="M484 376h-2v4h2z"/><path fill="#fff" fill-opacity=".08" d="M484 376h-2v1h2z"/><path fill="#fff" fill-opacity=".16" d="M480 376h-2v4h2z"/><path fill="#fff" fill-opacity=".08" d="M480 376h-2v1h2z"/><path fill="#fff" fill-opacity=".16" d="M485 392h-8v2h8z"/><path fill="#fff" fill-opacity=".08" d="M485 392h-8v1h8z"/><path fill="#fff" fill-opacity=".16" d="M485 402h-8v2h8z"/><path fill="#fff" fill-opacity=".08" d="M485 402h-8v1h8z"/><path fill="#fff" fill-opacity=".16" d="M484 396h-2v4h2z"/><path fill="#fff" fill-opacity=".08" d="M484 396h-2v1h2z"/><path fill="#fff" fill-opacity=".16" d="M480 396h-2v4h2z"/><path fill="#fff" fill-opacity=".08" d="M480 396h-2v1h2z"/><path fill="#fff" fill-opacity=".16" d="M469 372h-8v2h8z"/><path fill="#fff" fill-opacity=".08" d="M469 372h-8v1h8z"/><path fill="#fff" fill-opacity=".16" d="M469 382h-8v2h8z"/><path fill="#fff" fill-opacity=".08" d="M469 382h-8v1h8z"/><path fill="#fff" fill-opacity=".16" d="M468 376h-2v4h2z"/><path fill="#fff" fill-opacity=".08" d="M468 376h-2v1h2z"/><path fill="#fff" fill-opacity=".16" d="M464 376h-2v4h2z"/><path fill="#fff" fill-opacity=".08" d="M464 376h-2v1h2z"/><path fill="#fff" fill-opacity=".16" d="M870 321h-8v2h8z"/><path fill="#fff" fill-opacity=".08" d="M870 321h-8v1h8z"/><path fill="#fff" fill-opacity=".16" d="M870 331h-8v2h8z"/><path fill="#fff" fill-opacity=".08" d="M870 331h-8v1h8z"/><path fill="#fff" fill-opacity=".16" d="M869 325h-2v4h2z"/><path fill="#fff" fill-opacity=".08" d="M869 325h-2v1h2z"/><path fill="#fff" fill-opacity=".16" d="M865 325h-2v4h2z"/><path fill="#fff" fill-opacity=".08" d="M865 325h-2v1h2z"/><path fill="#fff" fill-opacity=".16" d="M886 341h-8v2h8z"/><path fill="#fff" fill-opacity=".08" d="M886 341h-8v1h8z"/><path fill="#fff" fill-opacity=".16" d="M886 351h-8v2h8z"/><path fill="#fff" fill-opacity=".08" d="M886 351h-8v1h8z"/><path fill="#fff" fill-opacity=".16" d="M885 345h-2v4h2z"/><path fill="#fff" fill-opacity=".08" d="M885 345h-2v1h2z"/><path fill="#fff" fill-opacity=".16" d="M881 345h-2v4h2z"/><path fill="#fff" fill-opacity=".08" d="M881 345h-2v1h2zM718 359h-8v8h8z"/><path stroke="#fff" stroke-opacity=".16" stroke-width=".5" d="M717.75 359.25h-7.5v7.5h7.5z"/><path fill="#fff" fill-opacity=".16" d="M714 363h-2v2h2z"/><path stroke="#fff" stroke-opacity=".16" stroke-width=".5" d="M721.75 355.25h-15.5v15.5h15.5z"/><path fill="#fff" fill-opacity=".16" d="M631 126h-2v2h2zM625 126h-2v2h2zM631 132h-2v2h2zM625 132h-2v2h2zM631 138h-2v2h2zM625 138h-2v2h2zM631 144h-2v2h2zM625 144h-2v2h2zM631 150h-2v2h2zM625 150h-2v2h2zM714 321h-2v2h2z"/><path stroke="#fff" stroke-opacity=".16" stroke-width=".5" d="M721.75 313.25h-15.5v15.5h15.5z"/><path fill="#fff" fill-opacity=".08" d="M718 317h-8v8h8z"/><path stroke="#fff" stroke-opacity=".16" stroke-width=".5" d="M717.75 317.25h-7.5v7.5h7.5z"/><path fill="#fff" fill-opacity=".16" d="M348 371h-2v2h2z"/><path stroke="#fff" stroke-opacity=".16" stroke-width=".5" d="M355.75 363.25h-15.5v15.5h15.5z"/><path fill="#fff" fill-opacity=".08" d="M352 367h-8v8h8z"/><path stroke="#fff" stroke-opacity=".16" stroke-width=".5" d="M351.75 367.25h-7.5v7.5h7.5z"/><path fill="#fff" fill-opacity=".16" d="M711 213h-2v6h2zM706 213h-2v6h2zM701 213h-2v6h2zM696 213h-2v6h2zM691 213h-2v6h2zM686 213h-2v6h2zM524 148h-2v6h2zM519 148h-2v6h2zM514 148h-2v6h2zM509 148h-2v6h2zM504 148h-2v6h2zM499 148h-2v6h2zM414 404h-2v6h2zM409 404h-2v6h2zM404 404h-2v6h2zM399 404h-2v6h2zM394 404h-2v6h2zM389 404h-2v6h2zM313 404h-2v6h2zM308 404h-2v6h2zM303 404h-2v6h2zM298 404h-2v6h2zM293 404h-2v6h2zM288 404h-2v6h2zM414 79h-2v6h2zM409 79h-2v6h2zM404 79h-2v6h2zM399 79h-2v6h2zM394 79h-2v6h2zM389 79h-2v6h2z"/><path d="M675.75 98.25h195V20" stroke="#fff" stroke-opacity=".06" stroke-width=".5"/><g clip-path="url(#a)" stroke="#fff" stroke-opacity=".1" stroke-width=".3"><path d="M864 386 704 226M856 386 696 226M848 386 688 226M840 386 680 226M832 386 672 226M824 386 664 226M816 386 656 226M808 386 648 226M800 386 640 226M792 386 632 226M784 386 624 226M776 386 616 226M768 386 608 226M760 386 600 226"/></g><g clip-path="url(#b)" stroke="#fff" stroke-opacity=".1" stroke-width=".3"><path d="M613 446 453 286M605 446 445 286M597 446 437 286M589 446 429 286M581 446 421 286M573 446 413 286M565 446 405 286M557 446 397 286M549 446 389 286M541 446 381 286M533 446 373 286M525 446 365 286M517 446 357 286M509 446 349 286"/></g><path d="M552 299.25h566.4c3.91 0 5.87 0 7.71-.442a15.965 15.965 0 0 0 4.62-1.916c1.62-.989 3-2.373 5.77-5.14L1382 46.25" stroke="#fff" stroke-opacity=".16" stroke-width=".5"/><path d="M671 199.25h108.396c3.914 0 5.87 0 7.712.442a15.994 15.994 0 0 1 4.625 1.916c1.614.989 2.998 2.373 5.765 5.14L890 299.25M552 384.25h336.396c3.914 0 5.87 0 7.712-.442a15.994 15.994 0 0 0 4.625-1.916c1.614-.989 2.998-2.373 5.765-5.14L984 299.25M580 165.25h90.75V299M1100.75 299v-53.75h-160V299" stroke="#fff" stroke-opacity=".16" stroke-width=".5"/><path fill="#fff" fill-opacity=".16" d="M963 260h-2v2h2zM957 260h-2v2h2zM963 266h-2v2h2zM957 266h-2v2h2zM963 272h-2v2h2zM957 272h-2v2h2zM963 278h-2v2h2zM957 278h-2v2h2zM963 284h-2v2h2zM957 284h-2v2h2z"/><path d="M149 390.25h177.75V540M17 487.25h177.75V540M326.75 540.25H19M670.5 214.25H617" stroke="#fff" stroke-opacity=".16" stroke-width=".5"/><rect opacity=".02" width="49" height="79" rx=".5" transform="matrix(-1 0 0 1 668 217)" fill="#fff"/><rect opacity=".05" width="3" height="3" rx=".5" transform="matrix(-1 0 0 1 666 219)" fill="#fff"/><rect opacity=".05" width="3" height="3" rx=".5" transform="matrix(-1 0 0 1 666 225)" fill="#fff"/><rect opacity=".05" width="3" height="3" rx=".5" transform="matrix(-1 0 0 1 666 231)" fill="#fff"/><rect opacity=".05" width="3" height="3" rx=".5" transform="matrix(-1 0 0 1 666 237)" fill="#fff"/><rect opacity=".05" width="3" height="3" rx=".5" transform="matrix(-1 0 0 1 666 243)" fill="#fff"/><rect opacity=".1" width="3" height="3" rx=".5" transform="matrix(-1 0 0 1 666 249)" fill="#fff"/><rect opacity=".05" width="3" height="3" rx=".5" transform="matrix(-1 0 0 1 666 255)" fill="#fff"/><rect opacity=".05" width="3" height="3" rx=".5" transform="matrix(-1 0 0 1 666 261)" fill="#fff"/><rect opacity=".05" width="3" height="3" rx=".5" transform="matrix(-1 0 0 1 666 267)" fill="#fff"/><rect opacity=".05" width="3" height="3" rx=".5" transform="matrix(-1 0 0 1 666 273)" fill="#fff"/><rect opacity=".05" width="3" height="3" rx=".5" transform="matrix(-1 0 0 1 666 279)" fill="#fff"/><rect opacity=".05" width="3" height="3" rx=".5" transform="matrix(-1 0 0 1 666 285)" fill="#fff"/><rect opacity=".05" width="3" height="3" rx=".5" transform="matrix(-1 0 0 1 666 291)" fill="#fff"/><rect opacity=".05" width="3" height="3" rx=".5" transform="matrix(-1 0 0 1 659 219)" fill="#fff"/><rect opacity=".15" width="3" height="3" rx=".5" transform="matrix(-1 0 0 1 659 225)" fill="#fff"/><rect opacity=".05" width="3" height="3" rx=".5" transform="matrix(-1 0 0 1 659 231)" fill="#fff"/><rect opacity=".05" width="3" height="3" rx=".5" transform="matrix(-1 0 0 1 659 237)" fill="#fff"/><rect opacity=".05" width="3" height="3" rx=".5" transform="matrix(-1 0 0 1 659 243)" fill="#fff"/><rect opacity=".05" width="3" height="3" rx=".5" transform="matrix(-1 0 0 1 659 249)" fill="#fff"/><rect opacity=".05" width="3" height="3" rx=".5" transform="matrix(-1 0 0 1 659 255)" fill="#fff"/><rect opacity=".05" width="3" height="3" rx=".5" transform="matrix(-1 0 0 1 659 261)" fill="#fff"/><rect opacity=".05" width="3" height="3" rx=".5" transform="matrix(-1 0 0 1 659 267)" fill="#fff"/><rect opacity=".15" width="3" height="3" rx=".5" transform="matrix(-1 0 0 1 659 273)" fill="#fff"/><rect opacity=".05" width="3" height="3" rx=".5" transform="matrix(-1 0 0 1 659 279)" fill="#fff"/><rect opacity=".05" width="3" height="3" rx=".5" transform="matrix(-1 0 0 1 659 285)" fill="#fff"/><rect opacity=".05" width="3" height="3" rx=".5" transform="matrix(-1 0 0 1 659 291)" fill="#fff"/><rect opacity=".05" width="3" height="3" rx=".5" transform="matrix(-1 0 0 1 652 219)" fill="#fff"/><rect opacity=".05" width="3" height="3" rx=".5" transform="matrix(-1 0 0 1 652 225)" fill="#fff"/><rect opacity=".05" width="3" height="3" rx=".5" transform="matrix(-1 0 0 1 652 231)" fill="#fff"/><rect opacity=".05" width="3" height="3" rx=".5" transform="matrix(-1 0 0 1 652 237)" fill="#fff"/><rect opacity=".1" width="3" height="3" rx=".5" transform="matrix(-1 0 0 1 652 243)" fill="#fff"/><rect opacity=".05" width="3" height="3" rx=".5" transform="matrix(-1 0 0 1 652 249)" fill="#fff"/><rect opacity=".05" width="3" height="3" rx=".5" transform="matrix(-1 0 0 1 652 255)" fill="#fff"/><rect opacity=".05" width="3" height="3" rx=".5" transform="matrix(-1 0 0 1 652 261)" fill="#fff"/><rect opacity=".05" width="3" height="3" rx=".5" transform="matrix(-1 0 0 1 652 267)" fill="#fff"/><rect opacity=".05" width="3" height="3" rx=".5" transform="matrix(-1 0 0 1 652 273)" fill="#fff"/><rect opacity=".1" width="3" height="3" rx=".5" transform="matrix(-1 0 0 1 652 279)" fill="#fff"/><rect opacity=".05" width="3" height="3" rx=".5" transform="matrix(-1 0 0 1 652 285)" fill="#fff"/><rect opacity=".05" width="3" height="3" rx=".5" transform="matrix(-1 0 0 1 652 291)" fill="#fff"/><rect opacity=".05" width="3" height="3" rx=".5" transform="matrix(-1 0 0 1 645 219)" fill="#fff"/><rect opacity=".05" width="3" height="3" rx=".5" transform="matrix(-1 0 0 1 645 225)" fill="#fff"/><rect opacity=".05" width="3" height="3" rx=".5" transform="matrix(-1 0 0 1 645 231)" fill="#fff"/><rect opacity=".05" width="3" height="3" rx=".5" transform="matrix(-1 0 0 1 645 237)" fill="#fff"/><rect opacity=".05" width="3" height="3" rx=".5" transform="matrix(-1 0 0 1 645 243)" fill="#fff"/><rect opacity=".05" width="3" height="3" rx=".5" transform="matrix(-1 0 0 1 645 249)" fill="#fff"/><rect opacity=".05" width="3" height="3" rx=".5" transform="matrix(-1 0 0 1 645 255)" fill="#fff"/><rect opacity=".05" width="3" height="3" rx=".5" transform="matrix(-1 0 0 1 645 261)" fill="#fff"/><rect opacity=".05" width="3" height="3" rx=".5" transform="matrix(-1 0 0 1 645 267)" fill="#fff"/><rect opacity=".05" width="3" height="3" rx=".5" transform="matrix(-1 0 0 1 645 273)" fill="#fff"/><rect opacity=".05" width="3" height="3" rx=".5" transform="matrix(-1 0 0 1 645 279)" fill="#fff"/><rect opacity=".05" width="3" height="3" rx=".5" transform="matrix(-1 0 0 1 645 285)" fill="#fff"/><rect opacity=".05" width="3" height="3" rx=".5" transform="matrix(-1 0 0 1 645 291)" fill="#fff"/><rect opacity=".05" width="3" height="3" rx=".5" transform="matrix(-1 0 0 1 638 219)" fill="#fff"/><rect opacity=".05" width="3" height="3" rx=".5" transform="matrix(-1 0 0 1 638 225)" fill="#fff"/><rect opacity=".05" width="3" height="3" rx=".5" transform="matrix(-1 0 0 1 638 231)" fill="#fff"/><rect opacity=".1" width="3" height="3" rx=".5" transform="matrix(-1 0 0 1 638 237)" fill="#fff"/><rect opacity=".05" width="3" height="3" rx=".5" transform="matrix(-1 0 0 1 638 243)" fill="#fff"/><rect opacity=".05" width="3" height="3" rx=".5" transform="matrix(-1 0 0 1 638 249)" fill="#fff"/><rect opacity=".1" width="3" height="3" rx=".5" transform="matrix(-1 0 0 1 638 255)" fill="#fff"/><rect opacity=".05" width="3" height="3" rx=".5" transform="matrix(-1 0 0 1 638 261)" fill="#fff"/><rect opacity=".05" width="3" height="3" rx=".5" transform="matrix(-1 0 0 1 638 267)" fill="#fff"/><rect opacity=".05" width="3" height="3" rx=".5" transform="matrix(-1 0 0 1 638 273)" fill="#fff"/><rect opacity=".05" width="3" height="3" rx=".5" transform="matrix(-1 0 0 1 638 279)" fill="#fff"/><rect opacity=".05" width="3" height="3" rx=".5" transform="matrix(-1 0 0 1 638 285)" fill="#fff"/><rect opacity=".05" width="3" height="3" rx=".5" transform="matrix(-1 0 0 1 638 291)" fill="#fff"/><rect opacity=".05" width="3" height="3" rx=".5" transform="matrix(-1 0 0 1 631 219)" fill="#fff"/><rect opacity=".1" width="3" height="3" rx=".5" transform="matrix(-1 0 0 1 631 225)" fill="#fff"/><rect opacity=".05" width="3" height="3" rx=".5" transform="matrix(-1 0 0 1 631 231)" fill="#fff"/><rect opacity=".05" width="3" height="3" rx=".5" transform="matrix(-1 0 0 1 631 237)" fill="#fff"/><rect opacity=".05" width="3" height="3" rx=".5" transform="matrix(-1 0 0 1 631 243)" fill="#fff"/><rect opacity=".05" width="3" height="3" rx=".5" transform="matrix(-1 0 0 1 631 249)" fill="#fff"/><rect opacity=".05" width="3" height="3" rx=".5" transform="matrix(-1 0 0 1 631 255)" fill="#fff"/><rect opacity=".05" width="3" height="3" rx=".5" transform="matrix(-1 0 0 1 631 261)" fill="#fff"/><rect opacity=".1" width="3" height="3" rx=".5" transform="matrix(-1 0 0 1 631 267)" fill="#fff"/><rect opacity=".05" width="3" height="3" rx=".5" transform="matrix(-1 0 0 1 631 273)" fill="#fff"/><rect opacity=".05" width="3" height="3" rx=".5" transform="matrix(-1 0 0 1 631 279)" fill="#fff"/><rect opacity=".05" width="3" height="3" rx=".5" transform="matrix(-1 0 0 1 631 285)" fill="#fff"/><rect opacity=".05" width="3" height="3" rx=".5" transform="matrix(-1 0 0 1 631 291)" fill="#fff"/><rect opacity=".05" width="3" height="3" rx=".5" transform="matrix(-1 0 0 1 624 219)" fill="#fff"/><rect opacity=".05" width="3" height="3" rx=".5" transform="matrix(-1 0 0 1 624 225)" fill="#fff"/><rect opacity=".05" width="3" height="3" rx=".5" transform="matrix(-1 0 0 1 624 231)" fill="#fff"/><rect opacity=".05" width="3" height="3" rx=".5" transform="matrix(-1 0 0 1 624 237)" fill="#fff"/><rect opacity=".05" width="3" height="3" rx=".5" transform="matrix(-1 0 0 1 624 243)" fill="#fff"/><rect opacity=".05" width="3" height="3" rx=".5" transform="matrix(-1 0 0 1 624 249)" fill="#fff"/><rect opacity=".05" width="3" height="3" rx=".5" transform="matrix(-1 0 0 1 624 255)" fill="#fff"/><rect opacity=".05" width="3" height="3" rx=".5" transform="matrix(-1 0 0 1 624 261)" fill="#fff"/><rect opacity=".05" width="3" height="3" rx=".5" transform="matrix(-1 0 0 1 624 267)" fill="#fff"/><rect opacity=".05" width="3" height="3" rx=".5" transform="matrix(-1 0 0 1 624 273)" fill="#fff"/><rect opacity=".05" width="3" height="3" rx=".5" transform="matrix(-1 0 0 1 624 279)" fill="#fff"/><rect opacity=".05" width="3" height="3" rx=".5" transform="matrix(-1 0 0 1 624 285)" fill="#fff"/><rect opacity=".15" width="3" height="3" rx=".5" transform="matrix(-1 0 0 1 624 291)" fill="#fff"/><path d="M616.75 165.5V299M423.75 262.25h128V213.5M326.75 390.25h97V261.5M551.75 263v153.25h-128V390" stroke="#fff" stroke-opacity=".16" stroke-width=".5"/><path d="M537 70v95M645 70v95M735 299.5V384M693 299.5V384M261 390.5V540M623 384.5V498" stroke="#fff" stroke-opacity=".08" stroke-width="2"/><path d="M580 165.25H455.622c-1.97 0-2.955 0-3.902-.184a10.036 10.036 0 0 1-2.426-.805c-.869-.419-1.658-1.008-3.238-2.186l-17.159-12.798c-1.887-1.408-2.83-2.112-3.511-3.005a8 8 0 0 1-1.327-2.645c-.309-1.079-.309-2.257-.309-4.611V70" stroke="#fff" stroke-opacity=".16" stroke-width=".5"/><path d="M424 95.25h-76.25V0M474.75 165.25v48h77v-48" stroke="#fff" stroke-opacity=".16" stroke-width=".5"/><rect opacity=".02" width="70" height="42" rx=".5" transform="matrix(-1 0 0 1 548 168)" fill="#fff"/><rect opacity=".05" width="3" height="3" rx=".5" transform="matrix(-1 0 0 1 547 170)" fill="#fff"/><rect opacity=".05" width="3" height="3" rx=".5" transform="matrix(-1 0 0 1 547 177)" fill="#fff"/><rect opacity=".05" width="3" height="3" rx=".5" transform="matrix(-1 0 0 1 547 184)" fill="#fff"/><rect opacity=".05" width="3" height="3" rx=".5" transform="matrix(-1 0 0 1 547 191)" fill="#fff"/><rect opacity=".05" width="3" height="3" rx=".5" transform="matrix(-1 0 0 1 547 198)" fill="#fff"/><rect opacity=".05" width="3" height="3" rx=".5" transform="matrix(-1 0 0 1 547 205)" fill="#fff"/><rect opacity=".05" width="3" height="3" rx=".5" transform="matrix(-1 0 0 1 539 170)" fill="#fff"/><rect opacity=".05" width="3" height="3" rx=".5" transform="matrix(-1 0 0 1 539 177)" fill="#fff"/><rect opacity=".1" width="3" height="3" rx=".5" transform="matrix(-1 0 0 1 539 184)" fill="#fff"/><rect opacity=".05" width="3" height="3" rx=".5" transform="matrix(-1 0 0 1 539 191)" fill="#fff"/><rect opacity=".05" width="3" height="3" rx=".5" transform="matrix(-1 0 0 1 539 198)" fill="#fff"/><rect opacity=".05" width="3" height="3" rx=".5" transform="matrix(-1 0 0 1 539 205)" fill="#fff"/><rect opacity=".05" width="3" height="3" rx=".5" transform="matrix(-1 0 0 1 531 170)" fill="#fff"/><rect opacity=".05" width="3" height="3" rx=".5" transform="matrix(-1 0 0 1 531 177)" fill="#fff"/><rect opacity=".05" width="3" height="3" rx=".5" transform="matrix(-1 0 0 1 531 184)" fill="#fff"/><rect opacity=".05" width="3" height="3" rx=".5" transform="matrix(-1 0 0 1 531 191)" fill="#fff"/><rect opacity=".05" width="3" height="3" rx=".5" transform="matrix(-1 0 0 1 531 198)" fill="#fff"/><rect opacity=".15" width="3" height="3" rx=".5" transform="matrix(-1 0 0 1 531 205)" fill="#fff"/><rect opacity=".1" width="3" height="3" rx=".5" transform="matrix(-1 0 0 1 523 170)" fill="#fff"/><rect opacity=".05" width="3" height="3" rx=".5" transform="matrix(-1 0 0 1 523 177)" fill="#fff"/><rect opacity=".05" width="3" height="3" rx=".5" transform="matrix(-1 0 0 1 523 184)" fill="#fff"/><rect opacity=".05" width="3" height="3" rx=".5" transform="matrix(-1 0 0 1 523 191)" fill="#fff"/><rect opacity=".05" width="3" height="3" rx=".5" transform="matrix(-1 0 0 1 523 198)" fill="#fff"/><rect opacity=".05" width="3" height="3" rx=".5" transform="matrix(-1 0 0 1 523 205)" fill="#fff"/><rect opacity=".05" width="3" height="3" rx=".5" transform="matrix(-1 0 0 1 515 170)" fill="#fff"/><rect opacity=".05" width="3" height="3" rx=".5" transform="matrix(-1 0 0 1 515 177)" fill="#fff"/><rect opacity=".05" width="3" height="3" rx=".5" transform="matrix(-1 0 0 1 515 184)" fill="#fff"/><rect opacity=".15" width="3" height="3" rx=".5" transform="matrix(-1 0 0 1 515 191)" fill="#fff"/><rect opacity=".05" width="3" height="3" rx=".5" transform="matrix(-1 0 0 1 515 198)" fill="#fff"/><rect opacity=".05" width="3" height="3" rx=".5" transform="matrix(-1 0 0 1 515 205)" fill="#fff"/><rect opacity=".05" width="3" height="3" rx=".5" transform="matrix(-1 0 0 1 507 170)" fill="#fff"/><rect opacity=".05" width="3" height="3" rx=".5" transform="matrix(-1 0 0 1 507 177)" fill="#fff"/><rect opacity=".05" width="3" height="3" rx=".5" transform="matrix(-1 0 0 1 507 184)" fill="#fff"/><rect opacity=".05" width="3" height="3" rx=".5" transform="matrix(-1 0 0 1 507 191)" fill="#fff"/><rect opacity=".05" width="3" height="3" rx=".5" transform="matrix(-1 0 0 1 507 198)" fill="#fff"/><rect opacity=".05" width="3" height="3" rx=".5" transform="matrix(-1 0 0 1 507 205)" fill="#fff"/><rect opacity=".05" width="3" height="3" rx=".5" transform="matrix(-1 0 0 1 499 170)" fill="#fff"/><rect opacity=".05" width="3" height="3" rx=".5" transform="matrix(-1 0 0 1 499 177)" fill="#fff"/><rect opacity=".15" width="3" height="3" rx=".5" transform="matrix(-1 0 0 1 499 184)" fill="#fff"/><rect opacity=".05" width="3" height="3" rx=".5" transform="matrix(-1 0 0 1 499 191)" fill="#fff"/><rect opacity=".05" width="3" height="3" rx=".5" transform="matrix(-1 0 0 1 499 198)" fill="#fff"/><rect opacity=".05" width="3" height="3" rx=".5" transform="matrix(-1 0 0 1 499 205)" fill="#fff"/><rect opacity=".1" width="3" height="3" rx=".5" transform="matrix(-1 0 0 1 491 170)" fill="#fff"/><rect opacity=".05" width="3" height="3" rx=".5" transform="matrix(-1 0 0 1 491 177)" fill="#fff"/><rect opacity=".05" width="3" height="3" rx=".5" transform="matrix(-1 0 0 1 491 184)" fill="#fff"/><rect opacity=".05" width="3" height="3" rx=".5" transform="matrix(-1 0 0 1 491 191)" fill="#fff"/><rect opacity=".05" width="3" height="3" rx=".5" transform="matrix(-1 0 0 1 491 198)" fill="#fff"/><rect opacity=".1" width="3" height="3" rx=".5" transform="matrix(-1 0 0 1 491 205)" fill="#fff"/><rect opacity=".05" width="3" height="3" rx=".5" transform="matrix(-1 0 0 1 483 170)" fill="#fff"/><rect opacity=".05" width="3" height="3" rx=".5" transform="matrix(-1 0 0 1 483 177)" fill="#fff"/><rect opacity=".05" width="3" height="3" rx=".5" transform="matrix(-1 0 0 1 483 184)" fill="#fff"/><rect opacity=".05" width="3" height="3" rx=".5" transform="matrix(-1 0 0 1 483 191)" fill="#fff"/><rect opacity=".05" width="3" height="3" rx=".5" transform="matrix(-1 0 0 1 483 198)" fill="#fff"/><rect opacity=".05" width="3" height="3" rx=".5" transform="matrix(-1 0 0 1 483 205)" fill="#fff"/><rect opacity=".02" width="70" height="42" rx=".5" transform="matrix(-1 0 0 1 189 493)" fill="#fff"/><rect opacity=".05" width="3" height="3" rx=".5" transform="matrix(-1 0 0 1 188 495)" fill="#fff"/><rect opacity=".05" width="3" height="3" rx=".5" transform="matrix(-1 0 0 1 188 502)" fill="#fff"/><rect opacity=".05" width="3" height="3" rx=".5" transform="matrix(-1 0 0 1 188 509)" fill="#fff"/><rect opacity=".05" width="3" height="3" rx=".5" transform="matrix(-1 0 0 1 188 516)" fill="#fff"/><rect opacity=".05" width="3" height="3" rx=".5" transform="matrix(-1 0 0 1 188 523)" fill="#fff"/><rect opacity=".05" width="3" height="3" rx=".5" transform="matrix(-1 0 0 1 188 530)" fill="#fff"/><rect opacity=".05" width="3" height="3" rx=".5" transform="matrix(-1 0 0 1 180 495)" fill="#fff"/><rect opacity=".05" width="3" height="3" rx=".5" transform="matrix(-1 0 0 1 180 502)" fill="#fff"/><rect opacity=".1" width="3" height="3" rx=".5" transform="matrix(-1 0 0 1 180 509)" fill="#fff"/><rect opacity=".05" width="3" height="3" rx=".5" transform="matrix(-1 0 0 1 180 516)" fill="#fff"/><rect opacity=".05" width="3" height="3" rx=".5" transform="matrix(-1 0 0 1 180 523)" fill="#fff"/><rect opacity=".05" width="3" height="3" rx=".5" transform="matrix(-1 0 0 1 180 530)" fill="#fff"/><rect opacity=".05" width="3" height="3" rx=".5" transform="matrix(-1 0 0 1 172 495)" fill="#fff"/><rect opacity=".05" width="3" height="3" rx=".5" transform="matrix(-1 0 0 1 172 502)" fill="#fff"/><rect opacity=".05" width="3" height="3" rx=".5" transform="matrix(-1 0 0 1 172 509)" fill="#fff"/><rect opacity=".05" width="3" height="3" rx=".5" transform="matrix(-1 0 0 1 172 516)" fill="#fff"/><rect opacity=".05" width="3" height="3" rx=".5" transform="matrix(-1 0 0 1 172 523)" fill="#fff"/><rect opacity=".15" width="3" height="3" rx=".5" transform="matrix(-1 0 0 1 172 530)" fill="#fff"/><rect opacity=".1" width="3" height="3" rx=".5" transform="matrix(-1 0 0 1 164 495)" fill="#fff"/><rect opacity=".05" width="3" height="3" rx=".5" transform="matrix(-1 0 0 1 164 502)" fill="#fff"/><rect opacity=".05" width="3" height="3" rx=".5" transform="matrix(-1 0 0 1 164 509)" fill="#fff"/><rect opacity=".05" width="3" height="3" rx=".5" transform="matrix(-1 0 0 1 164 516)" fill="#fff"/><rect opacity=".05" width="3" height="3" rx=".5" transform="matrix(-1 0 0 1 164 523)" fill="#fff"/><rect opacity=".05" width="3" height="3" rx=".5" transform="matrix(-1 0 0 1 164 530)" fill="#fff"/><rect opacity=".05" width="3" height="3" rx=".5" transform="matrix(-1 0 0 1 156 495)" fill="#fff"/><rect opacity=".05" width="3" height="3" rx=".5" transform="matrix(-1 0 0 1 156 502)" fill="#fff"/><rect opacity=".05" width="3" height="3" rx=".5" transform="matrix(-1 0 0 1 156 509)" fill="#fff"/><rect opacity=".15" width="3" height="3" rx=".5" transform="matrix(-1 0 0 1 156 516)" fill="#fff"/><rect opacity=".05" width="3" height="3" rx=".5" transform="matrix(-1 0 0 1 156 523)" fill="#fff"/><rect opacity=".05" width="3" height="3" rx=".5" transform="matrix(-1 0 0 1 156 530)" fill="#fff"/><rect opacity=".05" width="3" height="3" rx=".5" transform="matrix(-1 0 0 1 148 495)" fill="#fff"/><rect opacity=".05" width="3" height="3" rx=".5" transform="matrix(-1 0 0 1 148 502)" fill="#fff"/><rect opacity=".05" width="3" height="3" rx=".5" transform="matrix(-1 0 0 1 148 509)" fill="#fff"/><rect opacity=".05" width="3" height="3" rx=".5" transform="matrix(-1 0 0 1 148 516)" fill="#fff"/><rect opacity=".05" width="3" height="3" rx=".5" transform="matrix(-1 0 0 1 148 523)" fill="#fff"/><rect opacity=".05" width="3" height="3" rx=".5" transform="matrix(-1 0 0 1 148 530)" fill="#fff"/><rect opacity=".05" width="3" height="3" rx=".5" transform="matrix(-1 0 0 1 140 495)" fill="#fff"/><rect opacity=".05" width="3" height="3" rx=".5" transform="matrix(-1 0 0 1 140 502)" fill="#fff"/><rect opacity=".15" width="3" height="3" rx=".5" transform="matrix(-1 0 0 1 140 509)" fill="#fff"/><rect opacity=".05" width="3" height="3" rx=".5" transform="matrix(-1 0 0 1 140 516)" fill="#fff"/><rect opacity=".05" width="3" height="3" rx=".5" transform="matrix(-1 0 0 1 140 523)" fill="#fff"/><rect opacity=".05" width="3" height="3" rx=".5" transform="matrix(-1 0 0 1 140 530)" fill="#fff"/><rect opacity=".1" width="3" height="3" rx=".5" transform="matrix(-1 0 0 1 132 495)" fill="#fff"/><rect opacity=".05" width="3" height="3" rx=".5" transform="matrix(-1 0 0 1 132 502)" fill="#fff"/><rect opacity=".05" width="3" height="3" rx=".5" transform="matrix(-1 0 0 1 132 509)" fill="#fff"/><rect opacity=".05" width="3" height="3" rx=".5" transform="matrix(-1 0 0 1 132 516)" fill="#fff"/><rect opacity=".05" width="3" height="3" rx=".5" transform="matrix(-1 0 0 1 132 523)" fill="#fff"/><rect opacity=".1" width="3" height="3" rx=".5" transform="matrix(-1 0 0 1 132 530)" fill="#fff"/><rect opacity=".05" width="3" height="3" rx=".5" transform="matrix(-1 0 0 1 124 495)" fill="#fff"/><rect opacity=".05" width="3" height="3" rx=".5" transform="matrix(-1 0 0 1 124 502)" fill="#fff"/><rect opacity=".05" width="3" height="3" rx=".5" transform="matrix(-1 0 0 1 124 509)" fill="#fff"/><rect opacity=".05" width="3" height="3" rx=".5" transform="matrix(-1 0 0 1 124 516)" fill="#fff"/><rect opacity=".05" width="3" height="3" rx=".5" transform="matrix(-1 0 0 1 124 523)" fill="#fff"/><rect opacity=".05" width="3" height="3" rx=".5" transform="matrix(-1 0 0 1 124 530)" fill="#fff"/></g><defs><clipPath id="a"><path fill="#fff" transform="matrix(-1 0 0 1 790 303)" d="M0 0h40v77H0z"/></clipPath><clipPath id="b"><path fill="#fff" transform="matrix(-1 0 0 1 539 363)" d="M0 0h80v40H0z"/></clipPath></defs></svg>